<svg width="58" height="198" viewBox="0 0 58 198" fill="none" xmlns="http://www.w3.org/2000/svg">
<path d="M56 2L58 2.00374L58.0037 -2.14524e-07L56 0L56 2ZM55.6562 186L55.6562 188L57.6524 188L57.6562 186.004L55.6562 186ZM6.88201 186L26.882 197.547L26.882 174.453L6.88201 186ZM2 2.69392e-06C0.895435 2.79995e-06 3.82787e-06 0.895433 3.8147e-06 2C3.80153e-06 3.10457 0.895435 4 2 4L2 2.69392e-06ZM54 1.99626L53.6562 185.996L57.6562 186.004L58 2.00374L54 1.99626ZM55.6562 184L24.882 184L24.882 188L55.6562 188L55.6562 184ZM56 0L2 2.69392e-06L2 4L56 4L56 0Z" fill="#66B2C2"/>
</svg>
