<svg width="91" height="100" viewBox="0 0 91 100" fill="none" xmlns="http://www.w3.org/2000/svg">
<path d="M4.00001 -4.76837e-06L6.67572e-06 -1.14441e-05L-6.67572e-06 7.99999L3.99999 7.99999L4.00001 -4.76837e-06ZM36.635 4.00005L36.6525 8.67844e-05L36.6438 4.88758e-05H36.635L36.635 4.00005ZM67.5 34.9998H63.5H67.5ZM67.5 99.7295L90.594 59.7295L44.406 59.7295L67.5 99.7295ZM3.99999 7.99999L36.635 8.00005L36.635 4.88758e-05L4.00001 -4.76837e-06L3.99999 7.99999ZM63.5 34.9998L63.5 63.7295H71.5V34.9998H63.5ZM36.6176 8.00001C51.4833 8.06476 63.5 20.134 63.5 34.9998H71.5C71.5 15.7293 55.9227 0.0840173 36.6525 8.67844e-05L36.6176 8.00001Z" fill="#66B2C2"/>
</svg>
