<svg width="24" height="24" viewBox="0 0 24 24" fill="none" xmlns="http://www.w3.org/2000/svg">
<path d="M5.44809 23.9994V7.8061H0.303253V23.9994H5.44862H5.44809ZM2.87674 5.59556C4.67048 5.59556 5.7872 4.3521 5.7872 2.79813C5.75362 1.20875 4.67048 0 2.91086 0C1.15003 0 0 1.20875 0 2.79799C0 4.35196 1.11632 5.59542 2.84303 5.59542H2.87634L2.87674 5.59556ZM8.29582 23.9994H13.4403V14.9573C13.4403 14.474 13.4738 13.9894 13.6097 13.6442C13.9815 12.6768 14.828 11.6754 16.2496 11.6754C18.1107 11.6754 18.8557 13.1603 18.8557 15.3374V23.9994H24V14.7147C24 9.74098 21.4622 7.42646 18.0774 7.42646C15.3023 7.42646 14.0836 9.04914 13.4064 10.1543H13.4407V7.80667H8.29609C8.36324 9.32579 8.29569 24 8.29569 24L8.29582 23.9994Z" fill="#344455"/>
</svg>
