<svg width="87" height="89" viewBox="0 0 87 89" fill="none" xmlns="http://www.w3.org/2000/svg">
<g filter="url(#filter0_d_117_172)">
<path d="M71.3264 28.4555L83 40.129L58.6734 56.6733L42.1292 80.9999L30.4556 69.3263L54.1337 52.1335L71.3264 28.4555Z" fill="#344455"/>
<path d="M44.8708 0L56.5444 11.6736L32.2178 28.2178L15.6736 52.5444L4.00001 40.8708L27.6781 23.6781L44.8708 0Z" fill="#344455"/>
<path d="M71.3869 29.2231L82.2192 40.0554L58.3922 56.2598L58.3135 56.3134L58.2599 56.3921L42.0555 80.2191L31.2232 69.3868L54.4274 52.5381L54.4916 52.4915L54.5383 52.4273L71.3869 29.2231ZM44.9314 0.767631L55.7637 11.5999L31.9366 27.8044L31.8579 27.8579L31.8044 27.9366L15.5999 51.7637L4.76764 40.9314L27.9719 24.0827L28.0361 24.0361L28.0827 23.9719L44.9314 0.767631Z" stroke="black"/>
</g>
<defs>
<filter id="filter0_d_117_172" x="0" y="0" width="87" height="89" filterUnits="userSpaceOnUse" color-interpolation-filters="sRGB">
<feFlood flood-opacity="0" result="BackgroundImageFix"/>
<feColorMatrix in="SourceAlpha" type="matrix" values="0 0 0 0 0 0 0 0 0 0 0 0 0 0 0 0 0 0 127 0" result="hardAlpha"/>
<feOffset dy="4"/>
<feGaussianBlur stdDeviation="2"/>
<feComposite in2="hardAlpha" operator="out"/>
<feColorMatrix type="matrix" values="0 0 0 0 0 0 0 0 0 0 0 0 0 0 0 0 0 0 0.25 0"/>
<feBlend mode="normal" in2="BackgroundImageFix" result="effect1_dropShadow_117_172"/>
<feBlend mode="normal" in="SourceGraphic" in2="effect1_dropShadow_117_172" result="shape"/>
</filter>
</defs>
</svg>
