<svg width="24" height="20" viewBox="0 0 24 20" fill="none" xmlns="http://www.w3.org/2000/svg">
<path d="M23.8933 2.40255C23.1169 2.74031 22.3007 2.97551 21.4649 3.10233C21.8557 3.03461 22.4307 2.32354 22.6595 2.03573C23.0073 1.6016 23.2723 1.10599 23.4411 0.574101C23.4411 0.534597 23.4802 0.478164 23.4411 0.449947C23.4214 0.43908 23.3993 0.433386 23.3769 0.433386C23.3545 0.433386 23.3324 0.43908 23.3127 0.449947C22.4051 0.946801 21.4392 1.32601 20.4378 1.57862C20.4029 1.5894 20.3657 1.59037 20.3303 1.58142C20.2949 1.57247 20.2626 1.55394 20.2368 1.52783C20.1588 1.434 20.0749 1.3454 19.9856 1.26259C19.5771 0.89264 19.1137 0.58985 18.6123 0.365296C17.9355 0.0845823 17.2044 -0.0369888 16.4743 0.00976414C15.7658 0.0549945 15.0742 0.247089 14.4423 0.574101C13.8201 0.918867 13.2732 1.38724 12.8346 1.95108C12.3732 2.53142 12.0401 3.20491 11.8576 3.92626C11.7072 4.61241 11.6902 5.32157 11.8074 6.01431C11.8074 6.13282 11.8074 6.14975 11.7069 6.13282C7.72667 5.54026 4.46098 4.11249 1.7926 1.04814C1.67537 0.912703 1.61396 0.912703 1.51906 1.04814C0.357928 2.83145 0.921749 5.65313 2.37317 7.04704C2.56855 7.23327 2.76952 7.41386 2.98165 7.58316C2.31618 7.5354 1.66697 7.35309 1.07247 7.04704C0.960825 6.97368 0.899419 7.01318 0.893837 7.14862C0.878012 7.33639 0.878012 7.52519 0.893837 7.71296C1.01032 8.61285 1.36113 9.46532 1.91039 10.1832C2.45965 10.9011 3.18766 11.4586 4.01997 11.7988C4.22287 11.8866 4.43428 11.9528 4.65078 11.9963C4.03472 12.1189 3.40288 12.138 2.78068 12.0527C2.64671 12.0245 2.59646 12.0979 2.64671 12.2277C3.46732 14.485 5.2481 15.1735 6.55437 15.5572C6.73301 15.5855 6.91165 15.5855 7.11261 15.6306C7.11261 15.6306 7.11261 15.6306 7.07912 15.6645C6.69393 16.3755 5.13645 16.8552 4.4219 17.1035C3.11768 17.5771 1.72713 17.7581 0.346763 17.634C0.12905 17.6001 0.0788087 17.6058 0.0229849 17.634C-0.032839 17.6622 0.0229849 17.7243 0.0843911 17.7807C0.36351 17.967 0.642629 18.1306 0.932913 18.2886C1.79709 18.7651 2.7107 19.1436 3.65712 19.4173C8.55845 20.783 14.0738 19.7785 17.7526 16.0821C20.6443 13.1814 21.6603 9.18023 21.6603 5.17344C21.6603 5.02107 21.8445 4.93078 21.9506 4.85177C22.6822 4.27552 23.3271 3.59499 23.8653 2.83145C23.9586 2.71763 24.0063 2.57272 23.9993 2.42512C23.9993 2.34047 23.9993 2.3574 23.8933 2.40255Z" fill="#344455"/>
</svg>
